<svg xmlns="http://www.w3.org/2000/svg" xmlns:xlink="http://www.w3.org/1999/xlink" version="1.1" width="170" height="170" viewBox="0,0,170,170">
    <rect x="0" y="0" width="170" height="170" fill="white" />
    <line x1="19" y1="54" x2="19" y2="82" stroke="black" stroke-width="1" id="line1"/>
    <line x1="19" y1="81" x2="19" y2="110" stroke="black" stroke-width="6" id="line2"/>
    <line x1="81" y1="43" x2="81" y2="60" stroke="black" stroke-width="1" id="line3"/>
    <line x1="81" y1="59" x2="81" y2="88" stroke="black" stroke-width="6" id="line4"/>
    <rect rx="0" ry="0" x="4" y="25" width="112" height="22" stroke="black" fill="transparent" stroke-width="1" id="rect4"/>
    <rect rx="10" ry="10" x="51" y="24" width="18" height="31" stroke="black" fill="orange" stroke-width="1" id="rect5"/>
    <text x="7" y="132" fill="black" id="text1">div container</text>
    <text x="41" y="109" fill="black" id="text6">html+js component</text>
    <rect rx="10" ry="10" x="31" y="24" width="18" height="31" stroke="black" fill="orange" stroke-width="1" id="rect10"/>
    <rect rx="10" ry="10" x="11" y="24" width="18" height="31" stroke="black" fill="orange" stroke-width="1" id="rect11"/>
    <text x="98" y="18" fill="black" id="text7">divlever</text>
    <rect rx="0" ry="0" x="72" y="25" width="20" height="22" stroke="black" fill="transparent" stroke-width="1" id="rect13"/>
    <rect rx="10" ry="10" x="73" y="1" width="18" height="31" stroke="black" fill="orange" stroke-width="1" id="rect14"/>
</svg>
